<svg width="1080" height="396" viewBox="0 0 1080 396" fill="none" xmlns="http://www.w3.org/2000/svg">
<path d="M347.75 107.54C346.13 114.08 345.02 122.65 344.48 129.47C342.95 152.87 345.13 176.55 351.89 199.26C359.26 222.52 373.91 245.78 391.29 263.53C397.17 269.51 404.11 275.2 411.55 278.89L410.6 284.49C380.58 282.73 353.98 265.71 331.83 246.41C295.35 213.22 268.41 166.64 256.93 118.91C256.77 117.84 255.76 113.53 255.63 112.37C255.5 111.44 255.06 109.18 254.94 107.55C254.94 107.55 347.84 107.36 347.74 107.55L347.75 107.54Z" fill="#D95D19"/>
<path d="M409.18 209.52C437.269 209.52 460.04 186.749 460.04 158.66C460.04 130.571 437.269 107.8 409.18 107.8C381.091 107.8 358.32 130.571 358.32 158.66C358.32 186.749 381.091 209.52 409.18 209.52Z" fill="#D95D19"/>
<path d="M410.6 284.47L405.87 280.94C406.09 280.67 428.58 253.86 439.46 229.22C453.31 197.87 454.29 158.71 454.3 158.32L459.98 158.44C459.95 160.09 458.98 199.1 444.66 231.52C433.44 256.91 411.55 283.35 410.6 284.47Z" fill="#D95D19"/>
<path d="M107.22 251.96L86.92 140.22C83.64 122.19 95.66 107.57 113.76 107.57H198.83C216.93 107.57 234.26 122.19 237.53 140.22L257.83 251.96C261.11 269.99 249.09 284.61 230.99 284.61H145.92C127.82 284.61 110.49 269.99 107.22 251.96ZM169.95 192.85C186.4 217.78 206.92 233.26 215.78 227.41C224.64 221.56 218.5 196.61 202.05 171.68C185.6 146.75 165.08 131.27 156.22 137.12C147.36 142.97 153.5 167.92 169.95 192.85Z" fill="#D95D19"/>
<path d="M484.34 107.5V197.58H667.49C678.48 197.58 687.39 207.02 687.39 218.67C687.39 230.32 678.48 239.76 667.49 239.76H484.34V284.8H619.22C668.18 284.8 707.88 245.11 707.88 196.14C707.88 147.18 668.19 107.48 619.22 107.48H484.34V107.5Z" fill="#D95D19"/>
<path d="M536.03 240.04H484.34C506.88 231.98 524.99 217.08 535.07 198.28L536.03 196.49V240.04Z" fill="#D95D19"/>
<path d="M753.24 284.84H739.74C741.26 276.43 742.47 268.45 743.38 260.91C744.29 253.37 744.74 246.36 744.74 239.85C744.74 195.95 728.36 151.84 695.58 107.5H759.2C770.42 130.85 776.14 159.01 776.14 187.97C776.14 216.93 768.4 250.55 753.23 284.84H753.24Z" fill="#D95D19"/>
<path d="M891.58 107.61V172.42C891.58 174.33 890.03 175.88 888.12 175.88C886.21 175.88 884.66 174.33 884.66 172.42V107.61H799.6V140.42C799.6 169.28 822.99 192.67 851.85 192.67H884.66V192.65H891.57V192.67H924.38C953.24 192.67 976.63 169.28 976.63 140.42V107.61H891.57H891.58Z" fill="#D95D19"/>
<path d="M924.39 199.46H891.58L884.67 199.47L851.86 199.46C823 199.46 799.61 222.85 799.61 251.71V284.52H884.67V219.7C884.67 217.79 886.22 216.24 888.13 216.24C890.04 216.24 891.59 217.79 891.59 219.7V284.52H976.65V251.71C976.65 222.85 953.26 199.46 924.4 199.46H924.39Z" fill="#D95D19"/>
<path d="M347.75 107.54C346.13 114.08 345.02 122.65 344.48 129.47C342.95 152.87 345.13 176.55 351.89 199.26C359.26 222.52 373.91 245.78 391.29 263.53C397.17 269.51 404.11 275.2 411.55 278.89L410.6 284.49C380.58 282.73 353.98 265.71 331.83 246.41C295.35 213.22 268.41 166.64 256.93 118.91C256.77 117.84 255.76 113.53 255.63 112.37C255.5 111.44 255.06 109.18 254.94 107.55C254.94 107.55 347.84 107.36 347.74 107.55L347.75 107.54Z" fill="#D95D19"/>
<path d="M409.18 209.52C437.269 209.52 460.04 186.749 460.04 158.66C460.04 130.571 437.269 107.8 409.18 107.8C381.091 107.8 358.32 130.571 358.32 158.66C358.32 186.749 381.091 209.52 409.18 209.52Z" fill="#D95D19"/>
<path d="M410.6 284.47L405.87 280.94C406.09 280.67 428.58 253.86 439.46 229.22C453.31 197.87 454.29 158.71 454.3 158.32L459.98 158.44C459.95 160.09 458.98 199.1 444.66 231.52C433.44 256.91 411.55 283.35 410.6 284.47Z" fill="#D95D19"/>
<path d="M107.22 251.96L86.92 140.22C83.64 122.19 95.66 107.57 113.76 107.57H198.83C216.93 107.57 234.26 122.19 237.53 140.22L257.83 251.96C261.11 269.99 249.09 284.61 230.99 284.61H145.92C127.82 284.61 110.49 269.99 107.22 251.96ZM169.95 192.85C186.4 217.78 206.92 233.26 215.78 227.41C224.64 221.56 218.5 196.61 202.05 171.68C185.6 146.75 165.08 131.27 156.22 137.12C147.36 142.97 153.5 167.92 169.95 192.85Z" fill="#D95D19"/>
<path d="M484.34 107.5V197.58H667.49C678.48 197.58 687.39 207.02 687.39 218.67C687.39 230.32 678.48 239.76 667.49 239.76H484.34V284.8H619.22C668.18 284.8 707.88 245.11 707.88 196.14C707.88 147.18 668.19 107.48 619.22 107.48H484.34V107.5Z" fill="#D95D19"/>
<path d="M536.03 240.04H484.34C506.88 231.98 524.99 217.08 535.07 198.28L536.03 196.49V240.04Z" fill="#D95D19"/>
<path d="M753.24 284.84H739.74C741.26 276.43 742.47 268.45 743.38 260.91C744.29 253.37 744.74 246.36 744.74 239.85C744.74 195.95 728.36 151.84 695.58 107.5H759.2C770.42 130.85 776.14 159.01 776.14 187.97C776.14 216.93 768.4 250.55 753.23 284.84H753.24Z" fill="#D95D19"/>
<path d="M891.58 107.61V172.42C891.58 174.33 890.03 175.88 888.12 175.88C886.21 175.88 884.66 174.33 884.66 172.42V107.61H799.6V140.42C799.6 169.28 822.99 192.67 851.85 192.67H884.66V192.65H891.57V192.67H924.38C953.24 192.67 976.63 169.28 976.63 140.42V107.61H891.57H891.58Z" fill="#D95D19"/>
<path d="M924.39 199.46H891.58L884.67 199.47L851.86 199.46C823 199.46 799.61 222.85 799.61 251.71V284.52H884.67V219.7C884.67 217.79 886.22 216.24 888.13 216.24C890.04 216.24 891.59 217.79 891.59 219.7V284.52H976.65V251.71C976.65 222.85 953.26 199.46 924.4 199.46H924.39Z" fill="#D95D19"/>
</svg>
