<svg width="1024" height="1024" viewBox="0 0 1024 1024" fill="none" xmlns="http://www.w3.org/2000/svg">
<path d="M242.682 205.126C243.656 205.122 244.63 205.118 245.633 205.115C248.87 205.104 252.107 205.108 255.343 205.112C257.675 205.108 260.007 205.103 262.339 205.097C268.655 205.083 274.971 205.083 281.288 205.085C287.24 205.086 293.192 205.08 299.145 205.075C311.659 205.064 324.172 205.066 336.686 205.072C348.105 205.077 359.524 205.066 370.942 205.047C382.696 205.028 394.45 205.019 406.203 205.023C412.79 205.025 419.378 205.022 425.965 205.008C432.164 204.996 438.364 204.998 444.563 205.011C446.829 205.013 449.095 205.011 451.361 205.002C478.698 204.909 500.619 210.491 521.042 229.781C530.057 239.075 537.29 250.767 540.507 263.387C540.683 264.056 540.86 264.725 541.041 265.414C542.414 271.025 542.774 276.254 542.702 282.016C542.698 283.328 542.698 283.328 542.694 284.668C542.682 287.428 542.657 290.189 542.632 292.949C542.622 294.835 542.613 296.721 542.604 298.607C542.583 303.201 542.548 307.794 542.507 312.387C541.021 312.866 541.021 312.866 539.505 313.355C509.45 323.144 485.374 341.528 470.565 369.859C466.956 377.106 464.522 384.552 462.507 392.387C462.335 393.031 462.163 393.676 461.986 394.34C460.491 400.38 460.202 406.118 460.188 412.323C460.178 413.377 460.168 414.432 460.158 415.519C460.127 418.976 460.11 422.433 460.093 425.891C460.074 428.299 460.054 430.708 460.034 433.116C459.983 439.434 459.943 445.752 459.906 452.069C459.866 458.525 459.815 464.98 459.765 471.436C459.668 484.086 459.583 496.736 459.507 509.387C461.817 509.387 464.127 509.387 466.507 509.387C466.497 507.423 466.497 507.423 466.487 505.419C466.426 493.032 466.381 480.646 466.351 468.259C466.336 461.892 466.315 455.525 466.28 449.158C466.248 443.005 466.23 436.852 466.222 430.699C466.217 428.36 466.206 426.021 466.19 423.683C466.087 408.331 466.481 394.223 472.632 379.887C472.93 379.18 473.229 378.474 473.537 377.746C478.614 366.175 485.71 356.446 494.507 347.387C495.044 346.787 495.582 346.188 496.136 345.57C513.773 326.518 541.198 315.369 566.793 314.29C569.072 314.248 571.35 314.234 573.63 314.233C574.921 314.226 574.921 314.226 576.238 314.22C579.093 314.206 581.947 314.2 584.801 314.194C586.861 314.186 588.92 314.178 590.979 314.169C597.716 314.143 604.453 314.128 611.19 314.113C613.52 314.108 615.849 314.103 618.178 314.097C627.875 314.076 637.571 314.057 647.268 314.046C661.112 314.029 674.956 313.996 688.8 313.939C698.564 313.9 708.327 313.881 718.091 313.876C723.908 313.872 729.725 313.86 735.542 313.828C741.023 313.797 746.503 313.791 751.984 313.803C753.98 313.803 755.977 313.795 757.973 313.777C774.707 313.637 790.467 316.094 805.569 323.699C806.356 324.084 807.143 324.469 807.953 324.865C814.143 327.988 819.391 331.7 824.507 336.387C825.162 336.902 825.816 337.418 826.491 337.949C844.027 351.978 855.78 375.196 858.321 397.259C859.038 405.482 858.811 413.795 858.813 422.042C858.821 424.318 858.829 426.595 858.838 428.871C858.86 435.024 858.869 441.177 858.874 447.331C858.878 451.184 858.884 455.038 858.891 458.891C858.911 469.594 858.927 480.297 858.93 491C858.93 491.682 858.93 492.365 858.931 493.068C858.931 494.452 858.931 495.835 858.932 497.219C858.932 497.905 858.932 498.592 858.932 499.299C858.933 500.331 858.933 500.331 858.933 501.383C858.936 512.511 858.963 523.639 859.001 534.767C859.039 546.236 859.058 557.705 859.059 569.174C859.059 575.596 859.068 582.018 859.097 588.439C859.123 594.486 859.125 600.531 859.109 606.578C859.107 608.782 859.114 610.987 859.13 613.191C859.332 642.787 850.643 668.286 829.819 689.637C820.46 698.841 810.208 705.511 798.194 710.762C797.497 711.072 796.8 711.381 796.082 711.701C778.513 718.901 761.09 718.893 742.382 718.637C733.843 718.554 725.304 718.472 716.507 718.387C716.507 751.717 716.507 785.047 716.507 819.387C694.423 816.933 677.016 804.082 660.938 789.519C658.65 787.512 656.294 785.662 653.89 783.797C644.902 776.471 636.953 768.005 628.819 759.762C626.338 757.253 623.856 754.746 621.37 752.242C619.835 750.694 618.302 749.144 616.772 747.59C612.748 743.529 608.642 739.681 604.243 736.026C602.361 734.249 601.018 732.395 599.597 730.238C595.653 724.701 591.413 719.466 584.456 717.936C576.147 716.796 567.756 717.093 559.398 717.359C546.551 717.749 535.517 715.447 523.882 709.699C523.177 709.358 522.473 709.017 521.747 708.666C501.67 698.656 487.673 683.622 476.507 664.387C476.106 663.724 475.705 663.062 475.292 662.379C472.774 657.868 471.36 653 469.882 648.074C469.675 647.387 469.469 646.7 469.256 645.991C468.627 643.799 468.06 641.599 467.507 639.387C467.33 638.686 467.154 637.985 466.972 637.262C464.883 627.557 465.152 617.721 465.093 607.844C465.074 605.864 465.054 603.884 465.034 601.905C464.983 596.728 464.943 591.551 464.906 586.374C464.866 581.078 464.815 575.782 464.765 570.486C464.668 560.12 464.584 549.753 464.507 539.387C463.955 540.039 463.403 540.691 462.834 541.364C460.024 543.807 458.93 543.855 455.27 543.758C454.225 543.742 453.18 543.727 452.103 543.71C450.977 543.677 449.851 543.644 448.69 543.609C446.293 543.59 443.895 543.572 441.497 543.557C437.726 543.511 433.958 543.45 430.188 543.349C414.668 542.145 414.668 542.145 401.092 548.045C399.044 550.35 397.319 552.894 395.507 555.387C393.646 557.123 391.711 558.754 389.77 560.4C385.376 564.258 381.354 568.503 377.261 572.676C376.282 573.667 375.303 574.657 374.323 575.646C370.209 579.803 366.097 583.961 362.003 588.137C341.372 609.166 318.151 632.556 287.507 636.387C287.507 605.697 287.507 575.007 287.507 543.387C271.114 543.544 271.114 543.544 254.722 543.747C239.214 543.877 225.008 543.111 211.069 535.574C210.074 535.055 210.074 535.055 209.059 534.525C203.734 531.672 199.042 528.383 194.507 524.387C193.7 523.733 192.893 523.08 192.061 522.406C181.683 513.694 175.013 502.661 169.507 490.387C169.19 489.692 168.873 488.997 168.546 488.281C163.643 476.51 164.208 463.568 164.216 451.071C164.21 449.141 164.203 447.211 164.196 445.282C164.178 440.071 164.174 434.86 164.172 429.649C164.171 426.387 164.167 423.124 164.161 419.861C164.143 408.46 164.135 397.058 164.136 385.656C164.137 375.058 164.116 364.461 164.085 353.864C164.058 344.738 164.048 335.611 164.049 326.485C164.05 321.046 164.044 315.608 164.023 310.169C164.003 305.052 164.003 299.935 164.018 294.818C164.02 292.95 164.015 291.082 164.003 289.215C163.917 275.119 165.611 262.845 172.257 250.137C172.601 249.467 172.945 248.797 173.3 248.107C176.389 242.282 180.034 237.24 184.507 232.387C185.256 231.558 186.005 230.729 186.776 229.875C201.931 213.888 220.586 205.032 242.682 205.126Z" fill="#8A8DD4"/>
<path d="M242.682 205.126C243.656 205.122 244.63 205.118 245.633 205.115C248.87 205.104 252.107 205.108 255.343 205.112C257.675 205.108 260.007 205.103 262.339 205.097C268.655 205.083 274.971 205.083 281.288 205.085C287.24 205.086 293.192 205.08 299.145 205.075C311.659 205.064 324.172 205.066 336.686 205.072C348.105 205.077 359.524 205.066 370.942 205.047C382.696 205.028 394.45 205.019 406.203 205.023C412.79 205.025 419.378 205.022 425.965 205.008C432.164 204.996 438.364 204.998 444.563 205.011C446.829 205.013 449.095 205.011 451.361 205.002C478.698 204.909 500.619 210.491 521.042 229.781C530.057 239.075 537.29 250.767 540.507 263.387C540.683 264.056 540.86 264.725 541.041 265.414C542.414 271.025 542.774 276.254 542.702 282.016C542.698 283.328 542.698 283.328 542.694 284.668C542.682 287.428 542.657 290.189 542.632 292.949C542.622 294.835 542.613 296.721 542.604 298.607C542.583 303.201 542.548 307.794 542.507 312.387C541.021 312.866 541.021 312.866 539.505 313.355C509.468 323.138 485.333 341.527 470.563 369.87C466.968 377.105 464.425 384.541 462.507 392.387C462.138 393.864 462.138 393.864 461.761 395.371C459.784 403.843 459.064 411.779 459.074 420.461C459.065 421.802 459.055 423.144 459.044 424.486C459.016 428.08 459.007 431.674 459.001 435.269C458.991 439.043 458.965 442.817 458.941 446.591C458.897 453.717 458.869 460.842 458.845 467.967C458.818 476.088 458.774 484.209 458.729 492.33C458.637 509.016 458.567 525.701 458.507 542.387C441.347 542.387 424.187 542.387 406.507 542.387C405.847 543.707 405.187 545.027 404.507 546.387C403.184 547.872 401.802 549.306 400.382 550.699C399.295 551.776 399.295 551.776 398.186 552.875C396.152 554.782 394.099 556.594 391.98 558.401C386.819 562.909 382.057 567.786 377.261 572.676C376.282 573.667 375.303 574.657 374.323 575.646C370.209 579.803 366.097 583.961 362.003 588.137C341.372 609.166 318.151 632.556 287.507 636.387C287.507 605.697 287.507 575.007 287.507 543.387C271.114 543.544 271.114 543.544 254.722 543.747C239.214 543.877 225.008 543.111 211.069 535.574C210.074 535.055 210.074 535.055 209.059 534.525C203.734 531.672 199.042 528.383 194.507 524.387C193.7 523.733 192.893 523.08 192.061 522.406C181.683 513.694 175.013 502.661 169.507 490.387C169.19 489.692 168.873 488.997 168.546 488.281C163.643 476.51 164.208 463.568 164.216 451.071C164.21 449.141 164.203 447.211 164.196 445.282C164.178 440.071 164.174 434.86 164.172 429.649C164.171 426.387 164.167 423.124 164.161 419.861C164.143 408.46 164.135 397.058 164.136 385.656C164.137 375.058 164.116 364.461 164.085 353.864C164.058 344.738 164.048 335.611 164.049 326.485C164.05 321.046 164.044 315.608 164.023 310.169C164.003 305.052 164.003 299.935 164.018 294.818C164.02 292.95 164.015 291.082 164.003 289.215C163.917 275.119 165.611 262.845 172.257 250.137C172.601 249.467 172.945 248.797 173.3 248.107C176.389 242.282 180.034 237.24 184.507 232.387C185.256 231.558 186.005 230.729 186.776 229.875C201.931 213.888 220.586 205.032 242.682 205.126Z" fill="#FDFDFE"/>
<path d="M573.63 314.233C574.921 314.226 574.921 314.226 576.238 314.22C579.093 314.206 581.947 314.2 584.801 314.194C586.861 314.186 588.92 314.178 590.979 314.169C597.716 314.143 604.453 314.128 611.19 314.113C613.52 314.108 615.849 314.103 618.178 314.097C627.875 314.076 637.571 314.057 647.268 314.046C661.112 314.029 674.956 313.996 688.8 313.939C698.564 313.9 708.327 313.881 718.091 313.876C723.908 313.872 729.725 313.86 735.542 313.828C741.023 313.797 746.503 313.791 751.984 313.803C753.98 313.803 755.976 313.795 757.973 313.777C774.706 313.637 790.467 316.094 805.569 323.699C806.749 324.276 806.749 324.276 807.953 324.865C814.143 327.988 819.391 331.7 824.507 336.387C825.489 337.16 825.489 337.16 826.491 337.949C844.027 351.978 855.78 375.196 858.321 397.259C859.038 405.482 858.811 413.795 858.813 422.042C858.821 424.318 858.829 426.595 858.838 428.871C858.86 435.024 858.869 441.177 858.874 447.331C858.878 451.184 858.884 455.038 858.891 458.891C858.911 469.594 858.927 480.297 858.93 491C858.93 491.682 858.93 492.365 858.931 493.068C858.931 494.452 858.931 495.835 858.932 497.219C858.932 497.905 858.932 498.592 858.932 499.299C858.933 500.331 858.933 500.331 858.933 501.383C858.936 512.511 858.963 523.639 859.001 534.767C859.039 546.236 859.058 557.705 859.059 569.174C859.059 575.596 859.068 582.018 859.096 588.439C859.123 594.486 859.125 600.531 859.109 606.578C859.107 608.782 859.114 610.987 859.13 613.191C859.332 642.787 850.643 668.286 829.819 689.637C820.46 698.841 810.207 705.511 798.194 710.762C797.497 711.072 796.8 711.382 796.082 711.701C778.513 718.901 761.09 718.893 742.382 718.637C733.843 718.554 725.304 718.472 716.507 718.387C716.507 751.717 716.507 785.047 716.507 819.387C694.423 816.933 677.016 804.082 660.938 789.519C658.65 787.512 656.294 785.662 653.89 783.797C644.902 776.471 636.953 768.005 628.819 759.762C626.338 757.253 623.856 754.746 621.37 752.242C619.835 750.694 618.302 749.144 616.772 747.59C612.748 743.529 608.642 739.681 604.243 736.026C602.361 734.249 601.018 732.395 599.597 730.238C595.653 724.701 591.413 719.466 584.456 717.936C576.147 716.796 567.756 717.093 559.398 717.359C546.551 717.749 535.517 715.447 523.882 709.699C523.177 709.358 522.473 709.017 521.747 708.666C501.67 698.656 487.673 683.622 476.507 664.387C476.106 663.724 475.705 663.062 475.292 662.379C468.438 650.103 466.343 635.494 466.393 621.678C466.393 620.096 466.393 620.096 466.393 618.483C466.393 615.015 466.401 611.546 466.409 608.078C466.411 605.667 466.412 603.255 466.413 600.844C466.417 594.51 466.427 588.176 466.438 581.841C466.448 575.373 466.453 568.904 466.458 562.436C466.469 549.753 466.485 537.07 466.507 524.387C467.653 524.326 468.799 524.266 469.979 524.203C471.509 524.119 473.039 524.034 474.569 523.949C475.321 523.91 476.074 523.871 476.849 523.83C481.454 523.571 485.95 523.107 490.507 522.387C490.509 522.932 490.512 523.478 490.514 524.04C490.573 537.363 490.649 550.686 490.742 564.009C490.787 570.453 490.826 576.896 490.853 583.339C490.879 589.564 490.92 595.788 490.97 602.013C490.987 604.381 490.998 606.749 491.004 609.117C491.014 612.448 491.042 615.779 491.074 619.11C491.072 620.561 491.072 620.561 491.07 622.04C491.325 640.821 499.943 658.2 512.675 671.715C523.888 682.294 537.44 689.347 552.507 692.387C553.242 692.561 553.976 692.735 554.733 692.914C558.053 693.48 561.205 693.496 564.573 693.492C565.961 693.506 567.348 693.521 568.735 693.537C570.892 693.56 573.047 693.574 575.204 693.562C587.613 693.509 596.88 696.141 606.507 704.387C607.648 705.616 608.757 706.876 609.827 708.168C613.426 712.372 617.317 716.138 621.382 719.887C622.083 720.54 622.784 721.193 623.506 721.865C627.166 725.264 630.865 728.607 634.632 731.887C637.712 734.583 640.322 737.424 642.91 740.588C644.514 742.395 646.185 743.893 648.034 745.445C654.27 750.832 659.948 756.784 665.729 762.649C670.822 767.785 676.003 772.696 681.507 777.387C683.884 779.514 686.256 781.648 688.624 783.785C690.422 785.444 690.422 785.444 692.507 786.387C692.498 785.557 692.489 784.727 692.48 783.873C692.399 776.017 692.339 768.162 692.299 760.307C692.279 756.269 692.251 752.231 692.205 748.194C692.161 744.291 692.138 740.388 692.127 736.484C692.12 735.002 692.106 733.52 692.084 732.037C691.927 720.912 692.908 711.355 700.808 702.918C709.31 695.256 717.93 694.099 728.995 694.043C730.093 694.028 731.192 694.014 732.323 693.999C735.822 693.952 739.321 693.918 742.819 693.887C747.42 693.845 752.02 693.792 756.62 693.731C757.662 693.725 758.704 693.72 759.778 693.715C766.244 693.628 772.218 692.881 778.507 691.387C779.323 691.206 780.139 691.025 780.979 690.839C796.985 687.118 812.809 674.069 821.507 660.387C822.091 659.483 822.675 658.58 823.276 657.649C830.5 645.923 833.653 634.63 833.661 620.959C833.665 620.017 833.669 619.075 833.674 618.104C833.687 614.952 833.693 611.799 833.7 608.647C833.708 606.385 833.716 604.122 833.724 601.86C833.751 594.433 833.766 587.006 833.78 579.578C833.786 577.017 833.791 574.456 833.796 571.895C833.818 561.238 833.837 550.581 833.848 539.924C833.851 537.162 833.854 534.399 833.857 531.637C833.858 530.607 833.858 530.607 833.859 529.557C833.872 518.451 833.905 507.346 833.947 496.24C833.989 484.817 834.012 473.393 834.018 461.97C834.021 455.565 834.033 449.16 834.066 442.755C834.096 436.723 834.102 430.691 834.091 424.659C834.09 422.454 834.099 420.25 834.116 418.045C834.284 395.85 829.101 378.082 813.507 361.387C810.333 358.472 807.008 355.894 803.507 353.387C802.675 352.78 801.844 352.172 800.987 351.547C788.797 343.194 775.507 339.23 760.787 339.246C759.933 339.243 759.079 339.24 758.2 339.237C755.352 339.229 752.505 339.227 749.657 339.226C747.61 339.221 745.562 339.216 743.515 339.211C737.961 339.198 732.407 339.191 726.853 339.187C723.378 339.184 719.904 339.18 716.43 339.175C705.546 339.161 694.662 339.152 683.778 339.148C671.239 339.143 658.7 339.126 646.161 339.097C636.452 339.075 626.744 339.065 617.036 339.064C611.245 339.063 605.455 339.057 599.664 339.039C594.212 339.022 588.759 339.02 583.306 339.029C581.314 339.03 579.322 339.026 577.33 339.016C551.774 338.896 530.784 344.777 511.936 362.852C502.052 373.144 495.899 384.497 492.507 398.387C492.341 399.022 492.175 399.658 492.003 400.312C490.573 406.129 490.202 411.613 490.188 417.588C490.178 418.565 490.168 419.542 490.157 420.548C490.127 423.745 490.11 426.943 490.093 430.141C490.074 432.37 490.054 434.599 490.034 436.828C489.983 442.672 489.943 448.517 489.906 454.361C489.866 460.334 489.815 466.307 489.765 472.279C489.668 483.982 489.584 495.684 489.507 507.387C487.364 507.899 485.217 508.396 483.069 508.887C481.277 509.304 481.277 509.304 479.448 509.731C475.066 510.46 470.933 510.524 466.507 510.387C466.436 496.547 466.384 482.708 466.351 468.868C466.336 462.44 466.315 456.013 466.28 449.586C466.248 443.374 466.23 437.162 466.222 430.951C466.217 428.59 466.206 426.229 466.19 423.868C466.087 408.452 466.455 394.283 472.632 379.887C472.93 379.18 473.229 378.474 473.537 377.746C478.613 366.175 485.71 356.446 494.507 347.387C495.044 346.787 495.582 346.188 496.136 345.57C515.717 324.418 545.436 314.251 573.63 314.233Z" fill="#FAFBFD"/>
<path d="M675.444 390.949C676.707 390.929 677.97 390.909 679.271 390.889C690.929 390.895 690.929 390.895 695.507 395.387C699.848 401.241 701.854 408.949 704.206 415.789C706.5 422.46 709.078 428.983 711.744 435.513C713.074 438.778 714.384 442.051 715.694 445.324C716.162 446.488 716.63 447.652 717.112 448.852C718.315 451.899 719.476 454.959 720.624 458.028C724.07 467.236 727.54 476.436 731.007 485.637C731.683 487.431 731.683 487.431 732.372 489.262C737.844 503.782 743.37 518.273 749.109 532.69C751.965 539.899 754.581 547.166 757.086 554.503C759.154 560.518 761.493 566.383 763.955 572.246C766.708 578.808 769.193 585.455 771.665 592.127C773.322 596.575 775.008 601.012 776.694 605.449C777.027 606.33 777.361 607.211 777.704 608.118C779.128 611.863 780.57 615.571 782.218 619.223C783.945 623.463 784.245 626.886 783.507 631.387C781.258 635.885 779.065 638.321 774.507 640.387C771.021 640.849 767.581 640.851 764.069 640.824C763.141 640.844 762.212 640.864 761.255 640.885C754.149 640.88 750.485 639.327 745.354 634.262C742.749 630.207 741.424 625.954 739.944 621.387C736.278 610.437 732.249 599.658 728.1 588.885C727.648 587.706 727.196 586.527 726.729 585.313C726.325 584.265 725.92 583.217 725.503 582.138C724.507 579.387 724.507 579.387 723.507 575.387C691.167 575.387 658.827 575.387 625.507 575.387C624.517 578.357 623.527 581.327 622.507 584.387C621.848 586.2 621.178 588.01 620.491 589.813C620.131 590.765 619.77 591.717 619.398 592.697C619.022 593.688 618.645 594.679 618.257 595.699C615.938 601.813 613.638 607.925 611.538 614.117C611.235 615.008 610.933 615.899 610.621 616.817C610.065 618.472 609.516 620.13 608.979 621.79C606.611 628.825 603.339 636.773 596.507 640.387C592.681 640.979 588.934 640.991 585.069 640.949C584.045 640.973 583.021 640.997 581.966 641.022C573.579 641.005 573.579 641.005 569.909 638.102C566.098 633.795 565.014 630.642 565.15 624.969C565.847 619.919 568.05 615.438 570.132 610.824C573.958 602.126 577.449 593.372 580.738 584.461C583.038 578.255 585.4 572.072 587.757 565.887C588.179 564.779 588.179 564.779 588.609 563.648C592.077 554.56 595.635 545.527 599.444 536.574C604.464 524.77 608.951 512.775 613.46 500.769C617.119 491.028 620.863 481.331 624.772 471.688C626.907 466.423 628.953 461.124 630.987 455.82C632.514 451.86 634.114 447.942 635.772 444.035C637.947 438.845 639.955 433.605 641.917 428.332C642.363 427.137 642.363 427.137 642.817 425.917C644.049 422.609 645.279 419.301 646.498 415.988C647.402 413.538 648.315 411.091 649.229 408.645C649.499 407.904 649.769 407.163 650.047 406.4C652.074 401.011 654.215 396.189 658.857 392.539C664.094 390.262 669.823 390.918 675.444 390.949Z" fill="#FCFCFD"/>
<path d="M550.507 341.387C550.553 353.288 550.589 365.189 550.61 377.09C550.621 382.618 550.635 388.145 550.658 393.672C550.679 399.015 550.691 404.358 550.696 409.7C550.7 411.73 550.707 413.76 550.718 415.789C550.854 442.274 545.98 466.328 527.009 486.005C525.527 487.487 524.025 488.942 522.507 490.387C521.718 491.146 520.929 491.905 520.116 492.688C515.117 497.066 509.647 500.027 503.694 502.887C502.964 503.238 502.234 503.589 501.482 503.95C500.783 504.27 500.083 504.589 499.362 504.918C498.429 505.344 498.429 505.344 497.476 505.779C495.09 506.515 492.991 506.426 490.507 506.387C490.437 493.182 490.384 479.977 490.351 466.772C490.336 460.639 490.314 454.506 490.28 448.374C490.248 442.448 490.23 436.521 490.222 430.595C490.216 428.342 490.206 426.089 490.189 423.836C490.088 409.158 490.127 395.572 497.132 382.262C497.476 381.592 497.82 380.923 498.174 380.233C501.519 373.96 505.684 368.605 510.507 363.387C511.092 362.733 511.677 362.08 512.28 361.406C521.477 351.627 536.68 341.076 550.507 341.387Z" fill="#3E57AC"/>
<path d="M375.194 323.387C380.236 324.909 381.855 328.003 384.507 332.387C385.074 333.305 385.641 334.222 386.226 335.168C388.05 338.208 389.784 341.288 391.507 344.387C392.093 345.382 392.68 346.377 393.284 347.402C398.539 356.848 398.793 364.406 396.007 374.762C388.929 395.427 373.684 411.608 355.708 423.47C352.594 425.44 352.594 425.44 350.507 428.387C366.435 432.35 381.821 434.338 398.237 434.551C399.106 434.564 399.975 434.578 400.87 434.592C405.289 434.659 409.706 434.7 414.127 434.694C415.782 434.712 417.437 434.73 419.093 434.75C420.231 434.735 420.231 434.735 421.392 434.719C427.217 434.827 429.578 436.383 433.507 440.387C435.081 443.536 434.855 445.907 434.507 449.387C432.734 452.364 430.651 454.815 427.507 456.387C424.737 456.511 421.993 456.575 419.222 456.59C418.382 456.597 417.542 456.604 416.676 456.611C413.932 456.629 411.188 456.635 408.444 456.637C407.514 456.638 406.583 456.639 405.624 456.64C385.132 456.625 365.245 455.281 345.507 449.387C344.388 449.067 343.269 448.747 342.116 448.418C335.039 446.256 329.14 443.985 324.632 437.824C321.828 431.75 321.27 424.938 322.507 418.387C324.993 415.415 328.062 414.064 331.507 412.387C333.334 411.285 335.146 410.159 336.944 409.012C337.87 408.423 338.795 407.834 339.749 407.227C352.027 399.035 362.168 389.23 369.507 376.387C370.466 374.84 370.466 374.84 371.444 373.262C372.876 369.387 373.339 365.468 372.507 361.387C369.336 359.273 368.599 359.139 364.979 359.149C364.051 359.146 363.123 359.144 362.167 359.141C361.151 359.148 360.135 359.156 359.088 359.163C357.48 359.163 357.48 359.163 355.84 359.162C353.509 359.162 351.178 359.166 348.847 359.174C345.156 359.184 341.466 359.178 337.776 359.168C327.282 359.14 316.788 359.128 306.294 359.157C299.878 359.174 293.463 359.161 287.046 359.13C284.602 359.124 282.157 359.129 279.712 359.145C276.288 359.167 272.867 359.152 269.443 359.128C267.931 359.151 267.931 359.151 266.389 359.175C260.381 359.086 257.1 358.119 252.737 353.906C251.069 351.847 250.624 350.471 250.757 347.824C250.762 347.101 250.767 346.378 250.772 345.633C251.933 342.084 253.546 340.672 256.507 338.387C259.97 337.664 263.37 337.755 266.897 337.819C267.941 337.818 268.985 337.818 270.061 337.817C273.509 337.82 276.954 337.859 280.401 337.898C282.793 337.908 285.185 337.915 287.577 337.92C293.869 337.939 300.16 337.988 306.451 338.043C312.873 338.095 319.294 338.117 325.716 338.143C338.313 338.196 350.91 338.281 363.507 338.387C363.209 336.974 363.209 336.974 362.905 335.533C362.507 332.387 362.507 332.387 364.132 330.051C367.78 326.919 370.501 324.659 375.194 323.387Z" fill="#283371"/>
<path d="M674.507 441.387C675.167 441.387 675.827 441.387 676.507 441.387C677.116 443.072 677.116 443.072 677.738 444.791C687.01 470.425 696.418 496.002 706.043 521.505C706.282 522.142 706.521 522.778 706.767 523.435C707.287 524.806 707.816 526.174 708.352 527.539C709.964 531.692 710.944 534.905 710.507 539.387C708.648 541.246 705.557 540.515 703.075 540.516C702.068 540.519 702.068 540.519 701.04 540.521C698.81 540.526 696.58 540.523 694.351 540.52C692.807 540.52 691.264 540.521 689.721 540.522C686.483 540.524 683.245 540.522 680.006 540.517C675.846 540.511 671.687 540.515 667.527 540.521C664.339 540.524 661.151 540.523 657.963 540.521C656.429 540.52 654.895 540.521 653.361 540.523C651.22 540.526 649.079 540.522 646.938 540.516C645.108 540.515 645.108 540.515 643.24 540.514C640.507 540.387 640.507 540.387 639.507 539.387C639.892 532.507 642.564 526.39 645.007 520.012C645.926 517.573 646.844 515.135 647.761 512.695C648.224 511.468 648.687 510.241 649.164 508.976C651.141 503.693 653.046 498.386 654.944 493.074C658.14 484.167 661.351 475.266 664.594 466.376C665.07 465.07 665.545 463.763 666.019 462.456C668.611 455.307 671.316 448.29 674.507 441.387Z" fill="#8C8FD4"/>
<path d="M308.507 362.387C310.744 363.764 312.706 365.281 314.71 366.977C318.125 369.657 321.329 369.522 325.507 369.512C326.559 369.514 327.611 369.517 328.695 369.52C331.588 369.51 331.588 369.51 334.507 368.387C341.493 367.711 341.493 367.711 345.507 370.387C347.741 373.738 348.22 375.524 347.902 379.465C347.193 382.919 346.269 384.127 343.507 386.387C338.671 388.421 333.794 390.387 328.507 390.387C328.395 391.548 328.283 392.71 328.167 393.906C327.629 398.165 326.476 402.072 324.945 406.074C324.683 406.763 324.421 407.451 324.151 408.16C317.072 426.009 302.024 446.401 284.507 455.387C280.632 456.137 280.632 456.137 277.507 455.387C275.445 453.574 275.445 453.574 273.507 450.387C272.976 449.515 272.445 448.644 271.898 447.746C267.548 440.284 267.548 440.284 267.413 437.336C269.207 434.14 272.262 432.605 275.32 430.762C276.264 430.17 276.264 430.17 277.228 429.566C279.712 428.023 282.151 426.543 284.831 425.363C287.043 424.074 287.462 422.691 288.507 420.387C289.556 419.149 290.643 417.942 291.757 416.762C301.145 406.166 306.35 393.459 307.507 379.387C306.565 379.82 305.623 380.254 304.652 380.7C301.108 382.33 297.56 383.954 294.012 385.576C292.486 386.274 290.961 386.975 289.436 387.676C263.235 399.732 263.235 399.732 256.507 398.387C253.49 395.819 251.945 394.211 251.027 390.383C250.772 386.761 251.251 384.722 253.448 381.848C257.415 378.657 261.238 377.504 266.07 376.074C273.695 373.682 281.16 371.072 288.57 368.074C289.408 367.737 290.246 367.399 291.109 367.052C295.394 365.318 295.394 365.318 299.556 363.312C302.775 361.786 304.985 361.917 308.507 362.387Z" fill="#273270"/>
<path d="M340.267 294.756C341.733 294.745 341.733 294.745 343.23 294.734C346.458 294.717 349.685 294.737 352.913 294.758C355.158 294.757 357.404 294.755 359.649 294.751C364.353 294.748 369.057 294.762 373.761 294.79C379.791 294.824 385.819 294.818 391.849 294.799C396.485 294.789 401.121 294.798 405.757 294.813C407.98 294.818 410.203 294.817 412.426 294.811C415.534 294.806 418.64 294.826 421.747 294.853C422.666 294.847 423.584 294.84 424.531 294.834C428.717 294.896 430.933 295.028 434.554 297.295C437.11 300.033 437.471 300.907 437.757 304.699C437.491 308.613 436.874 310.319 434.507 313.387C431.441 315.431 430.803 315.64 427.345 315.668C426.075 315.685 426.075 315.685 424.78 315.702C423.854 315.705 422.928 315.707 421.974 315.709C420.997 315.719 420.019 315.729 419.012 315.739C415.773 315.768 412.535 315.782 409.296 315.793C407.048 315.805 404.8 315.816 402.551 315.828C397.835 315.849 393.119 315.86 388.403 315.867C382.358 315.878 376.313 315.926 370.268 315.983C365.624 316.02 360.979 316.031 356.335 316.034C354.106 316.04 351.877 316.056 349.649 316.082C346.531 316.116 343.416 316.113 340.298 316.1C338.916 316.127 338.916 316.127 337.505 316.156C331.403 316.076 331.403 316.076 328.816 314.087C326.294 311.17 324.812 308.703 324.882 304.824C324.869 304.101 324.856 303.378 324.843 302.633C327.17 294.761 333.344 294.668 340.267 294.756Z" fill="#263271"/>
<path d="M542.507 276.387C542.837 276.387 543.167 276.387 543.507 276.387C543.837 287.607 544.167 298.827 544.507 310.387C548.467 309.727 552.427 309.067 556.507 308.387C559.506 308.315 562.509 308.287 565.507 308.387C565.507 310.037 565.507 311.687 565.507 313.387C567.142 313.384 567.142 313.384 568.809 313.381C595.298 313.337 621.787 313.304 648.276 313.283C661.085 313.273 673.895 313.259 686.704 313.236C697.866 313.216 709.028 313.203 720.19 313.199C726.103 313.196 732.015 313.19 737.928 313.175C743.489 313.162 749.05 313.158 754.611 313.161C756.656 313.16 758.701 313.156 760.746 313.148C763.53 313.138 766.314 313.141 769.098 313.146C769.914 313.14 770.73 313.135 771.571 313.129C775.416 313.149 777.23 313.202 780.507 315.387C778.858 315.384 778.858 315.384 777.175 315.381C750.382 315.337 723.589 315.304 696.795 315.283C683.838 315.273 670.881 315.259 657.924 315.236C646.626 315.216 635.327 315.203 624.029 315.199C618.051 315.196 612.073 315.19 606.095 315.175C600.459 315.162 594.823 315.158 589.186 315.161C587.127 315.16 585.067 315.156 583.008 315.148C550.244 315.032 521.976 322.767 497.507 345.387C496.686 346.115 495.865 346.843 495.019 347.594C479.821 361.742 468.806 384.432 467.311 405.094C467.225 407.883 467.194 410.667 467.188 413.458C467.178 414.503 467.168 415.548 467.158 416.625C467.127 420.039 467.11 423.453 467.093 426.867C467.074 429.25 467.055 431.634 467.034 434.017C466.983 440.259 466.943 446.501 466.906 452.743C466.866 459.125 466.815 465.507 466.765 471.889C466.668 484.388 466.584 496.887 466.507 509.387C464.197 509.387 461.887 509.387 459.507 509.387C459.39 495.651 459.302 481.915 459.248 468.179C459.222 461.798 459.187 455.418 459.13 449.038C459.075 442.865 459.045 436.693 459.033 430.52C459.023 428.181 459.006 425.842 458.978 423.503C458.613 390.798 468.237 364.644 490.933 340.996C503.229 328.532 521.11 316.208 538.507 312.387C539.827 312.387 541.147 312.387 542.507 312.387C542.507 300.507 542.507 288.627 542.507 276.387Z" fill="#435599"/>
<path d="M288.507 283.387C291.042 285.102 291.042 285.102 293.569 287.324C294.518 288.136 295.467 288.948 296.444 289.785C296.942 290.213 297.439 290.641 297.952 291.081C300.588 293.295 303.329 295.367 306.069 297.449C322.93 310.337 322.93 310.337 325.507 313.387C326.074 317.679 325.816 319.833 323.694 323.637C322.972 324.544 322.251 325.452 321.507 326.387C321.074 327.006 320.641 327.624 320.194 328.262C317.326 330.174 314.867 329.69 311.507 329.387C309.043 328.011 307.071 326.729 304.882 325.012C304.283 324.563 303.684 324.114 303.067 323.651C301.2 322.246 299.353 320.818 297.507 319.387C296.347 318.504 295.187 317.623 294.026 316.742C291.841 315.079 289.665 313.403 287.499 311.715C285.596 310.235 283.686 308.765 281.765 307.309C280.554 306.388 280.554 306.388 279.319 305.449C278.625 304.925 277.93 304.4 277.214 303.859C274.725 301.712 273.598 299.946 273.069 296.699C273.79 291.244 276.728 287.28 280.444 283.324C283.464 281.952 285.322 282.583 288.507 283.387Z" fill="#283471"/>
<path d="M466.507 396.387C466.507 433.677 466.507 470.967 466.507 509.387C464.197 509.387 461.887 509.387 459.507 509.387C459.483 495.392 459.466 481.397 459.455 467.401C459.45 460.903 459.443 454.405 459.431 447.907C459.42 441.637 459.414 435.367 459.412 429.097C459.41 426.703 459.406 424.31 459.401 421.917C459.394 418.567 459.393 415.218 459.393 411.868C459.388 410.381 459.388 410.381 459.382 408.863C459.384 407.947 459.385 407.031 459.386 406.088C459.386 405.296 459.385 404.505 459.384 403.689C459.518 401.179 459.96 398.837 460.507 396.387C463.507 395.387 463.507 395.387 466.507 396.387Z" fill="#3F4F91"/>
<path d="M465.507 538.387C465.507 566.107 465.507 593.827 465.507 622.387C463.527 622.882 463.527 622.882 461.507 623.387C458.159 619.885 458.062 616.654 458.071 612.035C458.061 611.302 458.051 610.568 458.041 609.812C458.012 607.39 458.006 604.969 458.003 602.547C457.993 600.861 457.983 599.174 457.973 597.488C457.955 593.955 457.949 590.422 457.951 586.889C457.951 582.365 457.91 577.842 457.859 573.318C457.825 569.835 457.819 566.354 457.821 562.871C457.817 561.203 457.804 559.536 457.781 557.868C457.751 555.534 457.76 553.202 457.778 550.867C457.761 550.181 457.744 549.495 457.727 548.788C457.782 546.014 458.02 543.955 459.856 541.814C463.871 538.387 463.871 538.387 465.507 538.387Z" fill="#304189"/>
<path d="M542.507 276.387C542.837 276.387 543.167 276.387 543.507 276.387C543.837 287.607 544.167 298.827 544.507 310.387C548.467 309.727 552.427 309.067 556.507 308.387C559.506 308.315 562.509 308.287 565.507 308.387C565.507 310.037 565.507 311.687 565.507 313.387C567.142 313.384 567.142 313.384 568.809 313.381C595.298 313.337 621.787 313.304 648.276 313.283C661.085 313.273 673.895 313.259 686.704 313.236C697.866 313.216 709.028 313.203 720.19 313.199C726.102 313.196 732.015 313.19 737.928 313.175C743.489 313.162 749.05 313.158 754.61 313.161C756.655 313.16 758.701 313.156 760.746 313.148C763.53 313.138 766.314 313.141 769.098 313.146C769.914 313.14 770.73 313.135 771.571 313.129C775.416 313.149 777.23 313.202 780.507 315.387C779.407 315.385 778.308 315.383 777.175 315.381C750.382 315.337 723.589 315.304 696.795 315.283C683.838 315.273 670.881 315.259 657.924 315.236C646.625 315.216 635.327 315.203 624.029 315.199C618.051 315.196 612.073 315.19 606.095 315.175C600.459 315.162 594.823 315.158 589.186 315.161C587.127 315.16 585.067 315.156 583.008 315.148C567.623 315.094 553.342 315.918 538.507 320.387C537.176 320.728 535.843 321.064 534.507 321.387C534.507 320.727 534.507 320.067 534.507 319.387C535.497 319.387 536.487 319.387 537.507 319.387C537.507 318.727 537.507 318.067 537.507 317.387C538.167 316.727 538.827 316.067 539.507 315.387C538.517 314.727 537.527 314.067 536.507 313.387C539.477 312.892 539.477 312.892 542.507 312.387C542.507 300.507 542.507 288.627 542.507 276.387Z" fill="#5A6390"/>
<path d="M458.507 406.387C458.837 406.387 459.167 406.387 459.507 406.387C459.507 440.377 459.507 474.367 459.507 509.387C461.817 509.387 464.127 509.387 466.507 509.387C465.548 509.789 465.548 509.789 464.569 510.199C462.176 511.273 462.176 511.273 461.507 514.387C461.637 516.386 461.637 516.386 462.007 518.449C462.507 522.387 462.507 522.387 461.507 524.387C463.157 524.387 464.807 524.387 466.507 524.387C466.507 558.707 466.507 593.027 466.507 628.387C466.177 628.387 465.847 628.387 465.507 628.387C465.177 599.017 464.847 569.647 464.507 539.387C462.527 541.367 462.527 541.367 460.507 543.387C457.976 543.868 457.976 543.868 455.096 543.841C454.015 543.841 452.934 543.84 451.82 543.84C450.66 543.819 449.499 543.799 448.304 543.777C447.111 543.772 445.918 543.766 444.689 543.76C440.878 543.738 437.068 543.688 433.257 543.637C430.674 543.617 428.09 543.598 425.507 543.582C419.173 543.538 412.84 543.471 406.507 543.387C406.507 543.057 406.507 542.727 406.507 542.387C423.667 542.387 440.827 542.387 458.507 542.387C458.507 497.507 458.507 452.627 458.507 406.387Z" fill="#8791B8"/>
<path d="M490.507 522.387C490.507 556.707 490.507 591.027 490.507 626.387C490.177 626.387 489.847 626.387 489.507 626.387C489.507 593.717 489.507 561.047 489.507 527.387C486.537 529.367 483.567 531.347 480.507 533.387C479.517 533.387 478.527 533.387 477.507 533.387C477.507 534.047 477.507 534.707 477.507 535.387C476.051 536.058 474.592 536.724 473.132 537.387C471.914 537.944 471.914 537.944 470.671 538.512C468.507 539.387 468.507 539.387 466.507 539.387C466.507 534.437 466.507 529.487 466.507 524.387C467.688 524.326 468.868 524.266 470.085 524.203C471.642 524.119 473.2 524.034 474.757 523.949C475.534 523.91 476.311 523.871 477.112 523.83C477.866 523.788 478.621 523.746 479.397 523.703C480.089 523.667 480.78 523.63 481.492 523.592C483.533 523.433 483.533 523.433 485.576 522.867C487.507 522.387 487.507 522.387 490.507 522.387Z" fill="#D6D7E5"/>
<path d="M858.507 404.387C858.837 404.387 859.167 404.387 859.507 404.387C859.598 434.154 859.669 463.921 859.711 493.689C859.716 497.206 859.721 500.723 859.727 504.24C859.728 504.94 859.729 505.641 859.73 506.362C859.747 517.688 859.779 529.014 859.816 540.34C859.853 551.967 859.875 563.595 859.883 575.223C859.889 581.752 859.901 588.28 859.93 594.808C859.957 600.956 859.965 607.104 859.959 613.251C859.961 615.505 859.968 617.758 859.984 620.012C860.004 623.096 859.999 626.179 859.988 629.263C860 630.148 860.011 631.033 860.023 631.945C859.962 638.44 858.253 643.526 855.507 649.387C854.481 645.811 854.744 644.086 855.917 640.536C858.476 630.861 857.947 620.937 857.939 611.003C857.948 608.745 857.959 606.487 857.97 604.229C857.998 598.129 858.007 592.029 858.013 585.928C858.022 579.542 858.049 573.156 858.073 566.77C858.112 556.061 858.14 545.351 858.161 534.642C858.182 523.617 858.209 512.592 858.245 501.567C858.247 500.886 858.249 500.205 858.251 499.504C858.262 496.088 858.273 492.672 858.285 489.255C858.378 460.966 858.449 432.676 858.507 404.387Z" fill="#4A4E7C"/>
<path d="M465.507 526.387C465.643 528.281 465.739 530.177 465.819 532.074C465.877 533.13 465.935 534.186 465.995 535.273C465.507 538.387 465.507 538.387 463.745 541.051C458.792 544.623 454.16 544.008 448.206 543.875C447.015 543.868 445.823 543.861 444.595 543.854C440.794 543.826 436.995 543.763 433.194 543.699C430.616 543.674 428.037 543.651 425.458 543.631C419.14 543.576 412.824 543.492 406.507 543.387C406.507 543.057 406.507 542.727 406.507 542.387C423.997 542.387 441.487 542.387 459.507 542.387C459.507 537.767 459.507 533.147 459.507 528.387C462.507 526.387 462.507 526.387 465.507 526.387Z" fill="#7781B6"/>
<path d="M525.507 681.387C528.391 682.012 530.252 682.78 532.944 684.199C541.266 688.453 550.215 690.757 559.507 691.387C559.507 692.047 559.507 692.707 559.507 693.387C560.914 693.371 560.914 693.371 562.349 693.355C565.849 693.321 569.349 693.296 572.849 693.277C574.36 693.267 575.871 693.253 577.382 693.236C579.562 693.211 581.741 693.2 583.921 693.191C585.23 693.181 586.539 693.171 587.888 693.16C591.448 693.383 594.199 694.093 597.507 695.387C597.177 696.047 596.847 696.707 596.507 697.387C595.5 697.063 594.493 696.74 593.456 696.406C589.707 695.339 586.224 695.118 582.315 695.078C580.944 695.053 579.572 695.028 578.2 695.002C576.084 694.974 573.967 694.949 571.85 694.93C559.627 694.8 547.586 693.907 536.444 688.387C535.422 687.892 534.4 687.397 533.347 686.887C530.667 685.471 528.053 684.031 525.507 682.387C525.507 682.057 525.507 681.727 525.507 681.387Z" fill="#9C9ECF"/>
<path d="M565.507 308.387C565.507 310.037 565.507 311.687 565.507 313.387C557.092 313.882 557.092 313.882 548.507 314.387C548.507 315.047 548.507 315.707 548.507 316.387C546.857 316.717 545.207 317.047 543.507 317.387C543.507 313.387 543.507 313.387 544.507 310.387C551.604 309.042 558.279 308.146 565.507 308.387Z" fill="#394EA1"/>
<path d="M641.507 529.387C642.621 533.008 642.507 535.298 642.507 539.387C664.617 539.387 686.727 539.387 709.507 539.387C709.507 539.717 709.507 540.047 709.507 540.387C700.528 540.41 691.548 540.428 682.569 540.439C678.4 540.444 674.231 540.451 670.062 540.462C666.042 540.473 662.022 540.479 658.002 540.482C656.465 540.484 654.928 540.487 653.391 540.493C651.245 540.5 649.1 540.501 646.954 540.5C645.731 540.503 644.507 540.505 643.247 540.507C640.507 540.387 640.507 540.387 639.507 539.387C639.895 535.889 640.393 532.729 641.507 529.387Z" fill="#AAAFD6"/>
<path d="M531.507 348.387C531.507 349.047 531.507 349.707 531.507 350.387C530.867 350.49 530.228 350.593 529.569 350.699C528.889 350.926 528.208 351.153 527.507 351.387C527.177 352.377 526.847 353.367 526.507 354.387C525.785 354.634 525.063 354.882 524.319 355.137C520.89 356.661 519.511 358.568 517.187 361.434C514.323 364.763 511.106 367.862 507.507 370.387C506.517 370.387 505.527 370.387 504.507 370.387C523.417 348.387 523.417 348.387 531.507 348.387Z" fill="#5464A5"/>
<path d="M572.507 602.387C574.113 607.207 571.139 611.344 569.132 615.787C566.976 620.733 565.934 625.001 565.507 630.387C564.847 630.057 564.187 629.727 563.507 629.387C562.991 623.548 564.829 618.988 566.882 613.637C567.357 612.343 567.357 612.343 567.843 611.023C570.232 604.661 570.232 604.661 572.507 602.387Z" fill="#9497CB"/>
<path d="M513.507 324.387C512.254 328.146 510.639 328.497 507.276 330.277C504.775 331.845 503.323 334.087 501.507 336.387C499.846 337.068 498.179 337.734 496.507 338.387C493.735 340.907 493.735 340.907 491.507 343.387C490.847 343.057 490.187 342.727 489.507 342.387C494.165 337.208 499.234 332.926 504.882 328.887C505.501 328.442 506.12 327.996 506.757 327.538C511.246 324.387 511.246 324.387 513.507 324.387Z" fill="#5D6BA2"/>
<path d="M619.507 480.387C620.167 480.387 620.827 480.387 621.507 480.387C618.969 490.004 615.175 499.16 611.507 508.387C611.177 508.387 610.847 508.387 610.507 508.387C610.016 503.482 611.161 500.711 613.425 496.535C614.903 493.6 615.856 490.569 616.847 487.441C617.618 485.04 618.531 482.713 619.507 480.387Z" fill="#9699CB"/>
<path d="M287.507 388.387C284.967 389.515 282.425 390.64 279.882 391.762C279.169 392.079 278.456 392.396 277.722 392.723C273.702 394.493 269.706 396.075 265.507 397.387C265.507 396.727 265.507 396.067 265.507 395.387C266.497 395.387 267.487 395.387 268.507 395.387C268.507 394.727 268.507 394.067 268.507 393.387C283.813 387.155 283.813 387.155 287.507 388.387Z" fill="#434C7A"/>
<path d="M793.507 686.387C789.754 688.839 786.17 690.288 781.882 691.574C780.755 691.918 779.629 692.263 778.468 692.617C775.507 693.387 775.507 693.387 772.507 693.387C772.507 692.727 772.507 692.067 772.507 691.387C773.136 691.205 773.765 691.023 774.413 690.836C778.667 689.587 782.832 688.298 786.944 686.637C790.507 685.387 790.507 685.387 793.507 686.387Z" fill="#9EA0D2"/>
<path d="M808.507 672.387C809.497 672.717 810.487 673.047 811.507 673.387C806.25 678.358 800.974 682.138 794.507 685.387C796.216 680.26 800.927 677.918 805.507 675.387C806.497 675.057 807.487 674.727 808.507 674.387C808.507 673.727 808.507 673.067 808.507 672.387Z" fill="#9A9CCD"/>
<path d="M459.507 509.387C461.817 509.387 464.127 509.387 466.507 509.387C465.867 509.655 465.228 509.923 464.569 510.199C462.176 511.273 462.176 511.273 461.507 514.387C461.637 516.386 461.637 516.386 462.007 518.449C462.507 522.387 462.507 522.387 461.507 524.387C460.847 524.387 460.187 524.387 459.507 524.387C459.507 519.437 459.507 514.487 459.507 509.387Z" fill="#747EB9"/>
<path d="M858.507 628.387C858.837 628.387 859.167 628.387 859.507 628.387C860.052 636.346 858.996 642.206 855.507 649.387C854.549 646.342 854.513 644.364 855.284 641.277C855.468 640.523 855.652 639.769 855.841 638.992C856.14 637.826 856.14 637.826 856.444 636.637C856.64 635.844 856.835 635.051 857.036 634.234C857.518 632.283 858.011 630.335 858.507 628.387Z" fill="#505584"/>
<path d="M839.507 677.387C839.837 678.377 840.167 679.367 840.507 680.387C839.214 682.395 839.214 682.395 837.319 684.512C836.707 685.216 836.095 685.919 835.464 686.645C833.418 688.466 832.181 688.995 829.507 689.387C829.894 688.939 830.28 688.492 830.679 688.031C833.691 684.535 836.65 681.013 839.507 677.387Z" fill="#464C7B"/>
<path d="M489.507 508.387C482.351 510.994 476.104 511.777 468.507 511.387C468.507 511.057 468.507 510.727 468.507 510.387C471.443 509.857 474.38 509.338 477.319 508.824C478.569 508.597 478.569 508.597 479.845 508.365C481.048 508.157 481.048 508.157 482.276 507.945C483.015 507.814 483.753 507.683 484.514 507.549C486.507 507.387 486.507 507.387 489.507 508.387Z" fill="#A6A7D3"/>
<path d="M145 31C145.66 31.33 146.32 31.66 147 32C134.638 39.3161 134.638 39.3161 130.793 38.5742C130.201 38.3847 129.61 38.1952 129 38C131.621 36.8029 134.246 35.6171 136.875 34.4375C137.995 33.9241 137.995 33.9241 139.137 33.4004C141.065 32.5403 143.031 31.7638 145 31Z" fill="#4A517D"/>
<path d="M91 63C89.5916 66.2152 87.8966 68.3218 85.375 70.75C84.4275 71.6704 84.4275 71.6704 83.4609 72.6094C82.9788 73.0683 82.4967 73.5272 82 74C81.34 73.34 80.68 72.68 80 72C81.4522 70.494 82.9119 68.9954 84.375 67.5C85.5932 66.247 85.5932 66.247 86.8359 64.9688C89 63 89 63 91 63Z" fill="#3B4278"/>
<path d="M465.507 526.387C465.507 527.047 465.507 527.707 465.507 528.387C464.862 528.795 464.218 529.204 463.554 529.625C461.222 531.27 461.222 531.27 460.897 534.305C460.851 535.384 460.805 536.463 460.757 537.574C460.7 538.661 460.643 539.748 460.585 540.867C460.559 541.699 460.533 542.53 460.507 543.387C459.847 543.057 459.187 542.727 458.507 542.387C458.594 540.094 458.702 537.803 458.819 535.512C458.877 534.236 458.935 532.959 458.995 531.645C459.164 530.57 459.333 529.494 459.507 528.387C462.507 526.387 462.507 526.387 465.507 526.387Z" fill="#5761A4"/>
<path d="M45 116C45.66 116.99 46.32 117.98 47 119C44.5385 124.662 44.5385 124.662 41.8125 126.375C41.2144 126.581 40.6162 126.787 40 127C41.2253 122.947 42.6988 119.556 45 116Z" fill="#3D4376"/>
<path d="M360.507 588.387C360.507 592.546 358.26 594.532 355.507 597.387C353.194 599.262 353.194 599.262 351.507 600.387C350.847 600.057 350.187 599.727 349.507 599.387C353.137 595.757 356.767 592.127 360.507 588.387Z" fill="#434A77"/>
<path d="M676.507 444.387C678.883 446.763 679.548 448.74 680.694 451.887C681.059 452.866 681.424 453.846 681.8 454.856C682.507 457.387 682.507 457.387 681.507 459.387C681.177 458.397 680.847 457.407 680.507 456.387C679.847 456.387 679.187 456.387 678.507 456.387C677.369 452.121 676.507 448.822 676.507 444.387Z" fill="#9FA2CE"/>
<path d="M389.507 559.387C389.837 560.377 390.167 561.367 390.507 562.387C387.867 564.697 385.227 567.007 382.507 569.387C381.847 569.057 381.187 568.727 380.507 568.387C383.477 565.417 386.447 562.447 389.507 559.387Z" fill="#4D5380"/>
<path d="M657.507 486.387C659.666 491.785 656.639 497.36 654.507 502.387C653.847 502.387 653.187 502.387 652.507 502.387C654.096 497.026 655.697 491.678 657.507 486.387Z" fill="#999CCC"/>
<path d="M100 968C101.32 968 102.64 968 104 968C104 968.66 104 969.32 104 970C106.97 970.495 106.97 970.495 110 971C110 971.99 110 972.98 110 974C110.66 974 111.32 974 112 974C111.67 974.66 111.34 975.32 111 976C109.164 974.858 107.331 973.712 105.5 972.562C104.479 971.924 103.458 971.286 102.406 970.629C101.612 970.091 100.818 969.554 100 969C100 968.67 100 968.34 100 968Z" fill="#434D78"/>
<path d="M705.507 699.387C706.167 699.717 706.827 700.047 707.507 700.387C704.207 703.687 700.907 706.987 697.507 710.387C697.507 706.064 699.656 704.503 702.507 701.387C703.497 700.727 704.487 700.067 705.507 699.387Z" fill="#EAEDFA"/>
<path d="M347.507 401.387C347.837 402.377 348.167 403.367 348.507 404.387C347.579 404.789 347.579 404.789 346.632 405.199C344.207 406.342 344.207 406.342 342.507 409.387C341.187 409.057 339.867 408.727 338.507 408.387C341.477 406.077 344.447 403.767 347.507 401.387Z" fill="#484F7D"/>
<path d="M31 145C31.33 145 31.66 145 32 145C32.33 147.64 32.66 150.28 33 153C30.525 154.485 30.525 154.485 28 156C28.99 152.37 29.98 148.74 31 145Z" fill="#545989"/>
<path d="M371.507 577.387C371.837 578.047 372.167 578.707 372.507 579.387C369.507 582.387 366.507 585.387 363.507 588.387C362.847 588.057 362.187 587.727 361.507 587.387C364.807 584.087 368.107 580.787 371.507 577.387Z" fill="#484F7B"/>
<path d="M630.507 451.387C631.497 451.717 632.487 452.047 633.507 452.387C631.032 458.327 631.032 458.327 628.507 464.387C627.323 460.834 627.812 459.688 628.945 456.199C629.232 455.298 629.52 454.397 629.816 453.469C630.044 452.782 630.272 452.095 630.507 451.387Z" fill="#989CCB"/>
<path d="M512.507 361.387C512.837 362.377 513.167 363.367 513.507 364.387C511.197 366.697 508.887 369.007 506.507 371.387C505.847 371.057 505.187 370.727 504.507 370.387C507.147 367.417 509.787 364.447 512.507 361.387Z" fill="#5C6DAC"/>
<path d="M525.507 317.387C525.837 318.047 526.167 318.707 526.507 319.387C522.547 321.862 522.547 321.862 518.507 324.387C517.517 323.727 516.527 323.067 515.507 322.387C518.807 320.737 522.107 319.087 525.507 317.387Z" fill="#5C6CA5"/>
<path d="M185.507 231.387C186.167 231.387 186.827 231.387 187.507 231.387C186.125 234.597 184.583 236.436 181.882 238.637C180.934 239.418 180.934 239.418 179.968 240.215C179.486 240.602 179.004 240.988 178.507 241.387C180.357 237.447 182.582 234.604 185.507 231.387Z" fill="#DADEEF"/>
<path d="M336.507 612.387C336.507 613.377 336.507 614.367 336.507 615.387C331.233 618.609 331.233 618.609 329.507 619.387C328.847 619.057 328.187 618.727 327.507 618.387C328.627 617.381 329.753 616.382 330.882 615.387C331.822 614.551 331.822 614.551 332.78 613.699C334.507 612.387 334.507 612.387 336.507 612.387Z" fill="#44497B"/>
<path d="M851.507 655.387C852.461 657.556 852.651 658.95 851.905 661.211C851.148 662.955 850.331 664.673 849.507 666.387C848.847 666.387 848.187 666.387 847.507 666.387C847.984 664.928 848.464 663.47 848.944 662.012C849.211 661.2 849.478 660.388 849.753 659.551C850.507 657.387 850.507 657.387 851.507 655.387Z" fill="#505687"/>
<path d="M459.507 524.387C461.817 524.387 464.127 524.387 466.507 524.387C466.177 525.707 465.847 527.027 465.507 528.387C465.507 527.727 465.507 527.067 465.507 526.387C463.527 527.047 461.547 527.707 459.507 528.387C459.507 527.067 459.507 525.747 459.507 524.387Z" fill="#636EAF"/>
<path d="M481.507 358.387C482.497 358.387 483.487 358.387 484.507 358.387C483.137 362.382 481.25 365.187 478.507 368.387C478.507 366.737 478.507 365.087 478.507 363.387C479.167 363.387 479.827 363.387 480.507 363.387C480.837 361.737 481.167 360.087 481.507 358.387Z" fill="#4A5A92"/>
<path d="M488.507 353.387C488.837 354.377 489.167 355.367 489.507 356.387C488.292 358.43 488.292 358.43 486.569 360.574C486.003 361.29 485.438 362.005 484.854 362.742C484.41 363.285 483.965 363.828 483.507 364.387C482.847 364.057 482.187 363.727 481.507 363.387C483.817 360.087 486.127 356.787 488.507 353.387Z" fill="#D8DEF2"/>
<path d="M544.507 312.387C544.177 314.037 543.847 315.687 543.507 317.387C540.237 316.823 538.681 315.887 536.507 313.387C539.216 312.032 541.516 312.322 544.507 312.387Z" fill="#4F61A8"/>
<path d="M323.507 621.387C323.837 622.377 324.167 623.367 324.507 624.387C319.007 627.512 319.007 627.512 314.507 626.387C317.477 624.737 320.447 623.087 323.507 621.387Z" fill="#434A79"/>
<path d="M379.507 569.387C379.837 570.047 380.167 570.707 380.507 571.387C378.857 573.367 377.207 575.347 375.507 577.387C374.517 577.057 373.527 576.727 372.507 576.387C374.817 574.077 377.127 571.767 379.507 569.387Z" fill="#494F7C"/>
<path d="M289.507 419.387C289.837 420.377 290.167 421.367 290.507 422.387C288.197 424.367 285.887 426.347 283.507 428.387C282.847 428.057 282.187 427.727 281.507 427.387C282.882 425.887 282.882 425.887 284.507 424.387C285.167 424.387 285.827 424.387 286.507 424.387C286.816 423.747 287.126 423.108 287.444 422.449C288.507 420.387 288.507 420.387 289.507 419.387Z" fill="#4F5380"/>
<path d="M297.507 409.387C297.837 410.377 298.167 411.367 298.507 412.387C297.292 414.211 297.292 414.211 295.569 416.074C295.003 416.697 294.438 417.32 293.854 417.961C293.41 418.432 292.965 418.902 292.507 419.387C291.847 419.057 291.187 418.727 290.507 418.387C292.817 415.417 295.127 412.447 297.507 409.387Z" fill="#3F4675"/>
<path d="M810.507 326.387C812.817 326.717 815.127 327.047 817.507 327.387C818.167 329.037 818.827 330.687 819.507 332.387C816.537 330.737 813.567 329.087 810.507 327.387C810.507 327.057 810.507 326.727 810.507 326.387Z" fill="#3F4776"/>
<path d="M174.507 242.387C175.167 242.387 175.827 242.387 176.507 242.387C175.416 246.162 174.599 248.857 171.507 251.387C172.064 248.043 172.859 245.354 174.507 242.387Z" fill="#3F4974"/>
<path d="M624.507 577.387C624.837 577.387 625.167 577.387 625.507 577.387C625.507 579.697 625.507 582.007 625.507 584.387C623.527 585.377 623.527 585.377 621.507 586.387C622.497 583.417 623.487 580.447 624.507 577.387Z" fill="#9B9CCE"/>
<path d="M641.507 529.387C642.547 532.767 642.587 535.865 642.507 539.387C641.517 539.387 640.527 539.387 639.507 539.387C639.965 535.917 640.398 532.713 641.507 529.387Z" fill="#A0A3CC"/>
<path d="M649.507 405.387C650.643 408.796 650.374 409.39 649.069 412.574C648.782 413.29 648.494 414.005 648.198 414.742C647.97 415.285 647.742 415.828 647.507 416.387C646.291 412.44 646.971 410.225 648.507 406.387C648.837 406.057 649.167 405.727 649.507 405.387Z" fill="#9699C9"/>
<path d="M344.507 383.387C344.177 384.377 343.847 385.367 343.507 386.387C341.659 387.117 341.659 387.117 339.444 387.574C338.711 387.733 337.977 387.891 337.222 388.055C336.373 388.219 336.373 388.219 335.507 388.387C335.507 387.727 335.507 387.067 335.507 386.387C336.827 386.387 338.147 386.387 339.507 386.387C339.507 385.727 339.507 385.067 339.507 384.387C341.507 383.387 341.507 383.387 344.507 383.387Z" fill="#3C4271"/>
<path d="M57 98C57.33 98.99 57.66 99.98 58 101C56.7852 102.824 56.7852 102.824 55.0625 104.688C54.4966 105.31 53.9307 105.933 53.3477 106.574C52.9029 107.045 52.4582 107.515 52 108C52 104.604 52.5217 103.934 54.5 101.312C54.9641 100.69 55.4281 100.067 55.9062 99.4258C56.2672 98.9553 56.6281 98.4848 57 98Z" fill="#434977"/>
<path d="M33 882C33.99 882.33 34.98 882.66 36 883C36.33 885.64 36.66 888.28 37 891C35 890 35 890 34.3672 888.152C34.2048 887.421 34.0423 886.691 33.875 885.938C33.7074 885.204 33.5398 884.471 33.3672 883.715C33.246 883.149 33.1248 882.583 33 882Z" fill="#414B77"/>
<path d="M35 135C36.1376 139.55 35.4284 141.631 34 146C33.34 145.67 32.68 145.34 32 145C32.99 141.7 33.98 138.4 35 135Z" fill="#484E7B"/>
</svg>
